<svg width="390" height="93" viewBox="0 0 390 93" fill="none" xmlns="http://www.w3.org/2000/svg">
<path d="M372 0C381.941 0 390 8.05888 390 18V83C390 88.5229 385.523 93 380 93H10C4.47715 93 0 88.5229 0 83V18C0 8.05888 8.05888 2.05357e-07 18 0H141.716C148.948 0 153.915 7.64673 153.553 14.8698C153.518 15.5754 153.5 16.2856 153.5 17C153.5 40.196 172.304 59 195.5 59C218.696 59 237.5 40.196 237.5 17C237.5 16.2856 237.482 15.5754 237.447 14.8698C237.085 7.64673 242.052 0 249.284 0H372Z" fill="#1D1D1F"/>
</svg>
