<svg width="123" height="29" viewBox="0 0 123 29" fill="none" xmlns="http://www.w3.org/2000/svg">
<path d="M11.7868 0L1.99981 2.62012L0 9.15054L3.56139 7.71973L4.46429 12.488L2.26794 10.3885L0.492962 12.2705L8.71752 20.7318L9.387 18.3096L9.90938 16.4121L13.4415 28.2348L23.1726 26.9933L26.3659 14.9076L21.5616 5.80137L11.7868 0ZM8.19218 2.87213L6.42586 5.20893L6.07528 9.61068L4.61693 4.21416L8.19218 2.87213ZM9.07592 8.517L15.5944 18.0757L18.7323 19.2033L20.582 11.7263L21.8702 20.3309L15.3758 20.0534L8.94956 12.1357L9.07592 8.517ZM2.09802 18.1284L10.2545 27.6166L10.056 23.6503L2.09802 18.1284Z" fill="#F5F5F7"/>
<path d="M42.4999 16.0967H35.6498V23.9382H32.0445V3.50813H43.4012V6.96322H35.6498V12.6416H42.4999V16.0967Z" fill="#F5F5F7"/>
<path d="M59.0508 20.4831V23.9382H47.2133V3.50813H58.7503V6.96322H50.8186V11.8604H57.849V15.3155H50.8186V20.4831H59.0508Z" fill="#F5F5F7"/>
<path d="M66.9264 16.4272V23.9382H63.3211V3.50813H70.1411C72.2041 3.50813 73.7865 4.03891 74.8881 5.10047C76.0098 6.14201 76.5706 7.54407 76.5706 9.30667V10.5986C76.5706 11.7603 76.3202 12.7818 75.8195 13.6631C75.3187 14.5444 74.5977 15.2154 73.6563 15.6761C75.2987 18.4802 76.7008 21.2342 77.8625 23.9382H73.7464C72.7449 21.4345 71.5532 18.9309 70.1712 16.4272H66.9264ZM70.1411 6.81299H66.9264V13.1223H70.1411C71.0224 13.1223 71.6934 12.902 72.1541 12.4613C72.6348 12.0006 72.8751 11.3797 72.8751 10.5986V9.30667C72.8751 8.54555 72.6348 7.94466 72.1541 7.50401C71.6934 7.04333 71.0224 6.81299 70.1411 6.81299Z" fill="#F5F5F7"/>
<path d="M85.2346 16.4272V23.9382H81.6293V3.50813H88.4493C90.5124 3.50813 92.0947 4.03891 93.1963 5.10047C94.318 6.14201 94.8788 7.54407 94.8788 9.30667V10.5986C94.8788 11.7603 94.6284 12.7818 94.1277 13.6631C93.627 14.5444 92.9059 15.2154 91.9645 15.6761C93.6069 18.4802 95.009 21.2342 96.1707 23.9382H92.0546C91.0532 21.4345 89.8614 18.9309 88.4794 16.4272H85.2346ZM88.4493 6.81299H85.2346V13.1223H88.4493C89.3306 13.1223 90.0016 12.902 90.4623 12.4613C90.943 12.0006 91.1834 11.3797 91.1834 10.5986V9.30667C91.1834 8.54555 90.943 7.94466 90.4623 7.50401C90.0016 7.04333 89.3306 6.81299 88.4493 6.81299Z" fill="#F5F5F7"/>
<path d="M103.543 23.9382H99.9375V3.50813H103.543V23.9382Z" fill="#F5F5F7"/>
<path d="M118.914 23.9382L114.648 16.4572L110.592 23.9382H106.806L112.785 13.3326L107.137 3.50813H111.223L115.158 10.3582L118.854 3.50813H122.639L117.021 13.5129L123 23.9382H118.914Z" fill="#F5F5F7"/>
</svg>
